<svg width="256" height="56" viewBox="0 0 256 56" fill="none" xmlns="http://www.w3.org/2000/svg">
<rect y="6" width="50" height="50" rx="5" fill="#F97316"/>
<path d="M26.316 35.912C24.644 31.8347 23.808 28.828 23.808 26.892C23.808 24.9267 24.2773 23.4013 25.216 22.316C26.1547 21.2307 27.3133 20.688 28.692 20.688C30.0707 20.688 31.1707 21.1573 31.992 22.096C32.8427 23.0053 33.268 24.1933 33.268 25.66C33.268 27.8307 32.0947 30.852 29.748 34.724C31.596 39.828 32.5933 42.6587 32.74 43.216C34.588 41.4267 36.3333 38.86 37.976 35.516C39.648 32.1427 40.484 28.7693 40.484 25.396C40.484 23.9587 40.1907 22.6387 39.604 21.436C39.0467 20.2333 38.768 19.3093 38.768 18.664C38.768 17.9893 38.9587 17.4467 39.34 17.036C39.7213 16.596 40.2053 16.376 40.792 16.376C41.76 16.376 42.4933 16.9333 42.992 18.048C43.4907 19.1627 43.74 20.6147 43.74 22.404C43.74 24.1933 43.5493 26.0267 43.168 27.904C42.816 29.752 42.3907 31.3947 41.892 32.832C41.3933 34.2693 40.7333 35.736 39.912 37.232C39.12 38.6987 38.4307 39.8867 37.844 40.796C37.2573 41.676 36.5533 42.6293 35.732 43.656C34.9107 44.6533 34.368 45.2987 34.104 45.592C33.84 45.856 33.5173 46.208 33.136 46.648C32.7547 47.0587 32.3147 47.264 31.816 47.264C30.9947 47.264 30.32 46.692 29.792 45.548C29.4693 44.844 28.648 42.6293 27.328 38.904C25.5093 41.72 23.6027 44.1253 21.608 46.12L20.992 46.736C20.64 47.088 20.244 47.264 19.804 47.264C18.836 47.264 18.1613 46.692 17.78 45.548C15.3747 38.9773 13.7907 34.636 13.028 32.524C12.2947 30.3827 11.576 28.432 10.872 26.672C10.1973 24.912 9.69867 23.6507 9.376 22.888C8.672 21.0693 8.32 19.7493 8.32 18.928C8.32 18.0773 8.51067 17.4467 8.892 17.036C9.27333 16.596 9.74267 16.376 10.3 16.376C11.4733 16.376 12.28 17.0653 12.72 18.444C12.8667 18.9133 13.0427 19.5733 13.248 20.424C14.128 23.856 15.5067 28.256 17.384 33.624C19.2613 38.992 20.376 42.2187 20.728 43.304C22.4 41.5733 24.2627 39.1093 26.316 35.912ZM28.648 31.556C29.176 30.9107 29.66 30.0307 30.1 28.916C30.54 27.772 30.76 26.804 30.76 26.012C30.76 25.1907 30.584 24.5307 30.232 24.032C29.88 23.504 29.4253 23.24 28.868 23.24C28.34 23.24 27.8707 23.46 27.46 23.9C27.0787 24.3107 26.888 24.8533 26.888 25.528C26.888 26.2027 27.0933 27.2293 27.504 28.608C27.944 29.9573 28.3253 30.94 28.648 31.556Z" fill="white"/>
<path d="M67.192 51.76C66.6347 51.76 66.136 51.54 65.696 51.1C65.2853 50.6893 65.08 50.088 65.08 49.296C65.08 49.1493 65.212 48.1813 65.476 46.392C65.7693 44.6027 65.916 41.6107 65.916 37.416C65.916 33.2213 65.8427 29.3787 65.696 25.888C65.6667 25.2133 65.4027 24.436 64.904 23.556C64.4347 22.676 64.2 21.8987 64.2 21.224C64.2 20.5493 64.42 20.0067 64.86 19.596C65.3 19.156 65.7987 18.936 66.356 18.936C67.8227 18.936 68.556 20.0947 68.556 22.412V24.48C69.788 22.7787 71.2693 21.4293 73 20.432C74.76 19.4347 76.388 18.936 77.884 18.936C79.8493 18.936 81.4333 19.6693 82.636 21.136C83.8387 22.5733 84.44 24.26 84.44 26.196C84.44 28.132 84.0587 29.936 83.296 31.608C82.5333 33.28 81.5653 34.6587 80.392 35.744C79.2187 36.8293 77.972 37.6947 76.652 38.34C75.332 38.956 74.0707 39.264 72.868 39.264C71.46 39.264 70.756 38.5747 70.756 37.196C70.756 36.58 70.976 36.1253 71.416 35.832C71.856 35.5387 72.296 35.392 72.736 35.392C73.176 35.392 73.6307 35.4653 74.1 35.612C74.5987 35.7587 75.0533 35.832 75.464 35.832C77.224 35.832 78.7053 35.1867 79.908 33.896C81.1107 32.576 81.712 30.9773 81.712 29.1C81.712 27.2227 81.1107 25.6387 79.908 24.348C78.7053 23.0573 77.224 22.412 75.464 22.412C73.176 22.412 71.4893 23.336 70.404 25.184C69.348 27.032 68.82 29.5547 68.82 32.752C68.82 34.4533 68.9373 37.1373 69.172 40.804C69.4067 44.4707 69.524 46.964 69.524 48.284C69.524 50.6013 68.7467 51.76 67.192 51.76ZM102.355 33.104C102.56 33.632 102.986 34.3507 103.631 35.26C104.306 36.14 104.643 36.8587 104.643 37.416C104.643 37.9733 104.496 38.428 104.203 38.78C103.91 39.1027 103.514 39.264 103.015 39.264C101.812 39.264 100.742 38.0173 99.8029 35.524L99.4509 34.556C97.9549 37.6947 95.7109 39.264 92.7189 39.264C91.2229 39.264 89.9762 38.7947 88.9789 37.856C88.0109 36.888 87.5269 35.6853 87.5269 34.248C87.5269 32.0187 88.2895 30.0973 89.8149 28.484C91.3402 26.8707 93.3349 26.0053 95.7989 25.888C95.2122 24.8613 94.5522 24.0987 93.8189 23.6C93.1149 23.072 92.4695 22.764 91.8829 22.676C91.2962 22.588 90.7389 22.544 90.2109 22.544C89.7122 22.5147 89.3162 22.3973 89.0229 22.192C88.7295 21.9867 88.5829 21.5907 88.5829 21.004C88.5829 20.388 88.8175 19.8893 89.2869 19.508C89.7855 19.1267 90.3722 18.936 91.0469 18.936C92.9535 18.936 94.8309 19.8893 96.6789 21.796C98.5269 23.7027 100.14 26.6947 101.519 30.772L102.355 33.104ZM94.6989 28.22C93.6429 28.22 92.6895 28.572 91.8389 29.276C91.0175 29.98 90.6069 30.8893 90.6069 32.004C90.6069 33.1187 90.9735 34.0573 91.7069 34.82C92.4695 35.5533 93.3789 35.92 94.4349 35.92C95.4909 35.92 96.4002 35.5533 97.1629 34.82C97.9255 34.0573 98.3069 33.1627 98.3069 32.136C98.3069 31.4027 98.1749 30.728 97.9109 30.112C97.6469 29.4667 97.4855 29.0707 97.4269 28.924C96.6642 28.4547 95.7549 28.22 94.6989 28.22ZM116.478 22.412C114.601 22.412 113.002 23.0573 111.682 24.348C110.392 25.6387 109.746 27.2227 109.746 29.1C109.746 30.9773 110.392 32.576 111.682 33.896C113.002 35.1867 114.572 35.832 116.39 35.832C118.209 35.832 119.72 35.26 120.922 34.116C122.154 32.9427 122.844 31.4907 122.99 29.76C122.961 28.9093 122.946 27.9413 122.946 26.856C122.946 25.7707 123.137 24.9933 123.518 24.524C123.929 24.0253 124.413 23.776 124.97 23.776C125.528 23.776 125.982 24.0107 126.334 24.48C126.686 24.92 126.862 25.4627 126.862 26.108C126.862 26.7533 126.833 27.3987 126.774 28.044C126.745 28.66 126.686 29.4667 126.598 30.464C126.305 33.72 126.158 36.7707 126.158 39.616C126.158 42.4613 124.897 45.1893 122.374 47.8C119.852 50.44 117.036 51.76 113.926 51.76C112.372 51.76 111.022 51.32 109.878 50.44C108.734 49.56 108.162 48.6067 108.162 47.58C108.162 47.052 108.338 46.5827 108.69 46.172C109.072 45.7613 109.512 45.556 110.01 45.556C110.538 45.556 111.008 45.7027 111.418 45.996C111.858 46.2893 112.254 46.612 112.606 46.964C112.988 47.316 113.545 47.6387 114.278 47.932C115.041 48.2253 115.892 48.372 116.83 48.372C118.678 48.372 120.218 47.6827 121.45 46.304C122.682 44.9547 123.298 43.3413 123.298 41.464C123.298 41.2293 123.254 38.78 123.166 34.116C121.905 35.7 120.394 36.9613 118.634 37.9C116.904 38.8093 115.261 39.264 113.706 39.264C111.653 39.264 109.996 38.5307 108.734 37.064C107.473 35.5973 106.842 33.764 106.842 31.564C106.842 29.3347 107.532 27.1933 108.91 25.14C110.289 23.0573 111.902 21.5027 113.75 20.476C115.598 19.4493 117.256 18.936 118.722 18.936C120.189 18.936 121.216 19.1707 121.802 19.64C122.418 20.08 122.726 20.6227 122.726 21.268C122.726 21.884 122.521 22.3973 122.11 22.808C121.729 23.2187 121.348 23.424 120.966 23.424C120.614 23.424 119.969 23.2627 119.03 22.94C118.121 22.588 117.27 22.412 116.478 22.412ZM139.546 30.244L134.31 29.804C133.812 29.804 133.416 29.848 133.122 29.936C133.298 31.608 134.002 33.0013 135.234 34.116C136.496 35.2307 137.977 35.788 139.678 35.788C141.321 35.788 142.802 35.1867 144.122 33.984C144.592 33.5733 144.944 33.368 145.178 33.368C145.413 33.368 145.618 33.456 145.794 33.632C145.97 33.808 146.058 33.9987 146.058 34.204C146.058 35.0547 145.222 36.1107 143.55 37.372C141.908 38.6333 140.03 39.264 137.918 39.264C135.836 39.264 134.017 38.4133 132.462 36.712C130.937 35.0107 130.174 32.8987 130.174 30.376C130.174 27.1493 131.392 24.436 133.826 22.236C136.261 20.036 138.945 18.936 141.878 18.936C143.11 18.936 144.108 19.156 144.87 19.596C145.662 20.0067 146.058 20.5493 146.058 21.224C146.058 21.8693 145.853 22.3973 145.442 22.808C145.061 23.2187 144.68 23.424 144.298 23.424C143.917 23.424 143.257 23.248 142.318 22.896C141.409 22.544 140.529 22.368 139.678 22.368C138.094 22.368 136.716 22.852 135.542 23.82C134.398 24.7587 133.636 25.932 133.254 27.34L139.326 26.988C140.676 26.988 141.35 27.516 141.35 28.572C141.35 29.6867 140.749 30.244 139.546 30.244ZM155.749 39.264C155.221 39.264 154.752 39.044 154.341 38.604C153.96 38.1347 153.667 37.5773 153.461 36.932C151.643 31.0067 150.044 26.5773 148.665 23.644C148.108 22.3827 147.829 21.4587 147.829 20.872C147.829 20.2853 147.991 19.816 148.313 19.464C148.636 19.112 149.047 18.936 149.545 18.936C150.308 18.936 150.924 19.508 151.393 20.652C151.892 21.796 152.787 24.1427 154.077 27.692C155.397 31.212 156.189 33.3973 156.453 34.248C156.717 35.0693 156.893 35.5973 156.981 35.832L157.113 36.272C157.935 35.7147 158.859 34.556 159.885 32.796C160.941 31.036 161.66 29.2907 162.041 27.56C161.484 26.064 160.941 24.7293 160.413 23.556C159.885 22.3533 159.621 21.4587 159.621 20.872C159.621 20.2853 159.783 19.816 160.105 19.464C160.428 19.112 160.839 18.936 161.337 18.936C162.1 18.936 162.716 19.508 163.185 20.652C163.684 21.796 164.579 24.1427 165.869 27.692C167.189 31.212 167.981 33.3973 168.245 34.248C168.509 35.0693 168.685 35.5973 168.773 35.832L168.905 36.272C169.961 35.568 171.091 34.0427 172.293 31.696C173.525 29.32 174.141 27.1787 174.141 25.272C174.141 24.6267 173.965 23.864 173.613 22.984C173.261 22.0747 173.085 21.3707 173.085 20.872C173.085 20.3733 173.276 19.9333 173.657 19.552C174.068 19.1413 174.611 18.936 175.285 18.936C175.96 18.936 176.503 19.2587 176.913 19.904C177.353 20.5493 177.573 21.6347 177.573 23.16C177.573 24.6853 177.06 26.7533 176.033 29.364C175.036 31.9747 173.731 34.2773 172.117 36.272C170.504 38.2667 168.979 39.264 167.541 39.264C166.544 39.264 165.781 38.4867 165.253 36.932C165.136 36.6093 164.872 35.8027 164.461 34.512L163.361 31.3C162.276 33.5587 161.044 35.4507 159.665 36.976C158.287 38.5013 156.981 39.264 155.749 39.264ZM185.177 28.66L185.529 36.624C185.529 37.416 185.324 38.0613 184.913 38.56C184.532 39.0293 184.063 39.264 183.505 39.264C182.948 39.264 182.493 39.044 182.141 38.604C181.789 38.1347 181.613 37.504 181.613 36.712C181.613 35.92 181.687 34.7907 181.833 33.324C182.127 30.3907 182.273 27.912 182.273 25.888C182.273 25.008 181.995 24.172 181.437 23.38C180.909 22.5587 180.645 21.8253 180.645 21.18C180.645 20.5347 180.865 20.0067 181.305 19.596C181.745 19.156 182.244 18.936 182.801 18.936C184.268 18.936 185.001 20.0947 185.001 22.412V24.128C185.881 22.544 186.937 21.2827 188.169 20.344C189.401 19.4053 190.531 18.936 191.557 18.936C192.584 18.936 193.361 19.2 193.889 19.728C194.447 20.2267 194.725 20.9013 194.725 21.752C194.725 22.6027 194.52 23.3213 194.109 23.908C193.699 24.4653 193.259 24.744 192.789 24.744C192.32 24.744 191.953 24.6267 191.689 24.392C191.455 24.128 191.279 23.864 191.161 23.6C191.044 23.3067 190.824 23.0427 190.501 22.808C190.179 22.544 189.768 22.412 189.269 22.412C188.419 22.412 187.568 22.9693 186.717 24.084C185.867 25.1987 185.353 26.724 185.177 28.66ZM198.934 35.788C198.934 32.092 198.861 28.8507 198.714 26.064C198.567 23.2773 198.494 21.6347 198.494 21.136C198.494 20.6373 198.685 20.1533 199.066 19.684C199.477 19.1853 199.961 18.936 200.518 18.936C201.075 18.936 201.53 19.1707 201.882 19.64C202.234 20.08 202.41 20.74 202.41 21.62C202.41 22.4707 202.307 23.9227 202.102 25.976C201.897 28 201.794 30.112 201.794 32.312C201.794 33.192 201.97 34.0427 202.322 34.864C202.703 35.656 202.894 36.3893 202.894 37.064C202.894 37.7093 202.703 38.2373 202.322 38.648C201.97 39.0587 201.471 39.264 200.826 39.264C200.21 39.264 199.741 38.912 199.418 38.208C199.095 37.504 198.934 36.6973 198.934 35.788ZM200.342 13.964C199.697 13.964 199.183 13.788 198.802 13.436C198.421 13.084 198.23 12.5707 198.23 11.896C198.23 11.2213 198.465 10.6493 198.934 10.18C199.403 9.68133 199.961 9.432 200.606 9.432C201.251 9.432 201.765 9.62266 202.146 10.004C202.557 10.356 202.762 10.8693 202.762 11.544C202.762 12.2187 202.513 12.7907 202.014 13.26C201.545 13.7293 200.987 13.964 200.342 13.964ZM218.435 22.192C218.288 22.192 216.455 22.0747 212.935 21.84C212.935 22.2213 212.876 23.6733 212.759 26.196C212.642 28.7187 212.583 30.596 212.583 31.828C212.583 33.0307 212.847 34.0427 213.375 34.864C213.932 35.656 214.211 36.3747 214.211 37.02C214.211 37.6653 213.991 38.208 213.551 38.648C213.111 39.0587 212.612 39.264 212.055 39.264C210.588 39.264 209.855 38.1053 209.855 35.788L209.679 26.856C209.679 25.0373 209.635 23.4093 209.547 21.972H208.491C208.08 21.972 207.743 21.8547 207.479 21.62C207.215 21.356 207.083 21.004 207.083 20.564C207.083 20.124 207.215 19.7867 207.479 19.552C207.743 19.288 208.08 19.156 208.491 19.156H209.415C209.356 17.6307 209.327 16.472 209.327 15.68C209.327 14.8587 209.518 14.2133 209.899 13.744C210.31 13.2453 210.794 12.996 211.351 12.996C211.908 12.996 212.363 13.2307 212.715 13.7C213.067 14.14 213.243 14.8733 213.243 15.9C213.243 16.9267 213.199 18.056 213.111 19.288L218.435 18.936C219.579 18.936 220.151 19.4787 220.151 20.564C220.151 21.6493 219.579 22.192 218.435 22.192ZM229.308 30.244L224.072 29.804C223.573 29.804 223.177 29.848 222.884 29.936C223.06 31.608 223.764 33.0013 224.996 34.116C226.257 35.2307 227.739 35.788 229.44 35.788C231.083 35.788 232.564 35.1867 233.884 33.984C234.353 33.5733 234.705 33.368 234.94 33.368C235.175 33.368 235.38 33.456 235.556 33.632C235.732 33.808 235.82 33.9987 235.82 34.204C235.82 35.0547 234.984 36.1107 233.312 37.372C231.669 38.6333 229.792 39.264 227.68 39.264C225.597 39.264 223.779 38.4133 222.224 36.712C220.699 35.0107 219.936 32.8987 219.936 30.376C219.936 27.1493 221.153 24.436 223.588 22.236C226.023 20.036 228.707 18.936 231.64 18.936C232.872 18.936 233.869 19.156 234.632 19.596C235.424 20.0067 235.82 20.5493 235.82 21.224C235.82 21.8693 235.615 22.3973 235.204 22.808C234.823 23.2187 234.441 23.424 234.06 23.424C233.679 23.424 233.019 23.248 232.08 22.896C231.171 22.544 230.291 22.368 229.44 22.368C227.856 22.368 226.477 22.852 225.304 23.82C224.16 24.7587 223.397 25.932 223.016 27.34L229.088 26.988C230.437 26.988 231.112 27.516 231.112 28.572C231.112 29.6867 230.511 30.244 229.308 30.244Z" fill="black"/>
</svg>
